<svg width="100" height="100" viewBox="0 0 100 100" fill="none" xmlns="http://www.w3.org/2000/svg">
<path d="M53.7398 13.6532C52.87 12.827 51.5002 12.8487 50.674 13.6966C49.8695 14.5446 49.8695 15.8709 50.674 16.7189L55.4357 21.4805L12.1678 64.7702C10.3414 66.5966 10.9285 68.5753 11.3633 70.0103C11.4503 70.2712 11.5371 70.5539 11.6024 70.88L14.6028 82.3383L0.66609 96.2753C-0.203683 97.1014 -0.225289 98.493 0.622673 99.341C1.47063 100.189 2.84042 100.232 3.68838 99.3844C3.71019 99.3626 3.7318 99.341 3.7318 99.341L17.6035 85.4909L29.2141 88.4914C29.5402 88.5566 29.8664 88.6652 30.1491 88.7305C30.8666 88.9696 31.6059 89.1 32.3668 89.1218C33.4539 89.1436 34.4975 88.687 35.2587 87.9043L78.5265 44.6148L83.2664 49.3546C84.1361 50.1808 85.5059 50.1592 86.3321 49.3112C87.1366 48.4633 87.1366 47.1369 86.3321 46.2889L53.7398 13.6532ZM32.345 84.7734C32.258 84.7516 31.6927 84.6429 31.3448 84.5343C30.9968 84.4256 30.5839 84.3168 30.2359 84.2515L19.1906 81.4033C19.1254 81.2729 19.0601 81.1642 18.9731 81.0554C18.9079 80.9902 18.8208 80.9467 18.734 80.9031L15.7987 69.8144C15.7117 69.4448 15.6031 69.1187 15.516 68.8141C15.4074 68.4228 15.2551 67.901 15.2333 67.8575L19.3645 63.7048L26.757 71.0973C27.6268 71.9235 28.9966 71.9019 29.8227 71.0539C30.6273 70.2059 30.6273 68.8796 29.8227 68.0316L22.4302 60.6391L28.3441 54.7033C28.4093 55.1381 28.605 55.5513 28.9093 55.8774L33.2578 60.2259C34.1276 61.052 35.4974 61.0304 36.3235 60.1825C37.1281 59.3345 37.1281 58.0081 36.3235 57.1602L31.9751 52.8117C31.6489 52.5074 31.2575 52.3117 30.801 52.2465L37.0194 46.028C37.0846 46.4628 37.2803 46.876 37.5846 47.2021L44.1074 53.7249C44.9772 54.5511 46.347 54.5295 47.1731 53.6815C47.9777 52.8335 47.9777 51.5072 47.1731 50.6592L40.6504 44.1364C40.3242 43.8321 39.911 43.6364 39.4763 43.5712L44.3031 38.7225L48.4343 42.8537C49.3041 43.6798 50.6738 43.6582 51.5 42.8102C52.3045 41.9623 52.3045 40.6359 51.5 39.788L47.3688 35.6568L51.913 31.1127L57.1312 36.3309C58.001 37.157 59.3708 37.1354 60.1969 36.2875C61.0014 35.4395 61.0014 34.1131 60.1969 33.2652L54.9787 28.0469L58.4357 24.5899L75.395 41.5491L32.345 84.7734Z" fill="#F7F7F9"/>
<path d="M99.3997 22.3492L77.6572 0.606565C76.7874 -0.219587 75.4176 -0.19798 74.5914 0.649982C73.7869 1.49794 73.7869 2.82431 74.5914 3.67227L79.5706 8.67301L68.0684 20.1749C67.1987 21.0011 67.1771 22.3927 68.025 23.2406C68.8512 24.1104 70.2428 24.132 71.0907 23.284C71.1125 23.2622 71.1342 23.2406 71.1342 23.2406L82.6361 11.7387L88.2675 17.3701L76.7656 28.872C75.8958 29.6982 75.8742 31.0898 76.7222 31.9377C77.5483 32.8075 78.9399 32.8291 79.7879 31.9812C79.8097 31.9593 79.8313 31.9377 79.8313 31.9377L91.3332 20.4358L96.3124 25.415C97.1821 26.2411 98.5519 26.2195 99.3781 25.3715C100.204 24.5236 100.204 23.1972 99.3997 22.3492Z" fill="#F7F7F9"/>
</svg>
