<svg width="390" height="352" viewBox="0 0 390 352" fill="none" xmlns="http://www.w3.org/2000/svg">
<path fill-rule="evenodd" clip-rule="evenodd" d="M106.611 106.956C112.631 120.984 124.881 125.898 135.446 123.493C143.748 121.604 154.554 104.179 154.173 96.1322C153.032 71.9946 126.494 26.0109 112.053 22.9566C100.384 31.9542 97.0781 84.7302 106.611 106.956Z" fill="#FEDEA6"/>
<path d="M130.263 124.688C126.386 124.688 122.528 123.753 119.037 121.93C113.41 118.993 108.917 113.898 106.042 107.196C101.587 96.8085 99.5617 78.7081 100.763 59.954C101.708 45.1709 105.071 27.5588 111.672 22.4646L111.899 22.288L112.178 22.3481C126.953 25.4738 153.633 71.6528 154.79 96.0985C155.19 104.559 144.153 122.137 135.583 124.091C133.834 124.493 132.046 124.688 130.263 124.688ZM112.209 23.6217C107.07 27.8932 103.17 41.7784 102.003 60.0329C100.816 78.6067 102.8 96.493 107.183 106.712C112.277 118.583 121.787 123.437 130.38 123.437C132.073 123.437 133.728 123.249 135.311 122.888C143.265 121.078 153.932 104.044 153.558 96.1549C153.036 85.091 146.907 68.1514 137.567 51.9407C128.407 36.0455 118.73 25.2521 112.209 23.6217Z" fill="#F5C371"/>
<path d="M112.453 22.7491L111.245 23.0267L134.646 123.566L135.853 123.288L112.453 22.7491Z" fill="#F9CF88"/>
<path d="M121.255 61.5356L120.253 60.8068C120.329 60.7054 127.818 50.5244 132.855 43.8034L133.849 44.5397C128.816 51.257 121.33 61.4342 121.255 61.5356Z" fill="#F9CF88"/>
<path d="M136.216 49.1046L121.554 66.2295L122.498 67.0283L137.159 49.9033L136.216 49.1046Z" fill="#F9CF88"/>
<path d="M101.186 73.4676L100.58 74.5422L126.853 89.2014L127.46 88.1267L101.186 73.4676Z" fill="#F9CF88"/>
<path d="M151.641 84.359L130.73 105.538L131.615 106.401L152.525 85.2222L151.641 84.359Z" fill="#F9CF88"/>
<path d="M102.483 90.4006L102.049 91.5546L129.887 101.92L130.322 100.766L102.483 90.4006Z" fill="#F9CF88"/>
<path d="M117.963 51.4109C115.809 49.4573 110.134 44.2804 103.979 38.3634L104.84 37.4768C110.984 43.3788 116.652 48.5482 118.802 50.498L117.963 51.4109Z" fill="#F9CF88"/>
<path fill-rule="evenodd" clip-rule="evenodd" d="M108.053 93.6378C105.783 91.3499 103.311 89.0545 100.685 86.7778C76.3133 65.6494 38.72 46.1928 24.8791 50.5807C17.6128 68.0125 47.2559 129.437 72.1266 148.217C87.8267 160.07 104.649 157.801 114.904 148.431C116.623 146.861 118.157 145.088 119.472 143.153C125.998 133.535 127.082 119.812 118.293 106.035C115.754 102.046 112.244 97.8567 108.053 93.6378Z" fill="#FEDEA6"/>
<path d="M94.4801 156.918C86.7189 156.918 78.8859 154.093 71.7519 148.709C60.1856 139.975 46.4428 120.991 35.893 99.1604C27.6028 82.0104 20.2043 60.1832 24.3041 50.3441L24.4136 50.0811L24.6895 49.9947C31.336 47.8871 43.5598 50.9301 59.1049 58.5602C73.7054 65.7283 89.0087 75.8454 101.089 86.3157C103.757 88.6299 106.247 90.9479 108.491 93.2058C112.859 97.6013 116.332 101.805 118.818 105.701C126.953 118.455 127.388 132.581 119.986 143.495C118.652 145.463 117.08 147.278 115.323 148.882C109.942 153.796 102.933 156.644 95.5759 156.899C95.2132 156.91 94.8466 156.918 94.4801 156.918ZM25.3432 51.0841C22.2485 59.1388 26.6959 77.2918 37.0077 98.6269C47.4782 120.289 61.0811 139.103 72.5 147.725C88.4835 159.792 105.102 156.546 114.484 147.977C116.173 146.433 117.677 144.693 118.958 142.807C126.077 132.314 125.631 118.692 117.771 106.362C115.334 102.542 111.915 98.4052 107.611 94.0736C105.389 91.8383 102.922 89.5391 100.276 87.2474C77.0268 67.0883 39.4222 47.0418 25.3432 51.0841Z" fill="#F5C371"/>
<path d="M25.3379 50.1639L24.4233 50.9957L114.455 148.85L115.37 148.019L25.3379 50.1639Z" fill="#F5C371"/>
<path d="M31.9047 89.3363L31.8594 88.1041C42.6813 87.6946 58.9784 87.225 59.1408 87.2212L59.1749 88.4535C59.0124 88.461 42.7228 88.9306 31.9047 89.3363Z" fill="#F5C371"/>
<path d="M63.9845 92.5451L35.0698 95.5103L35.197 96.7361L64.1117 93.7708L63.9845 92.5451Z" fill="#F5C371"/>
<path d="M86.6945 76.211L83.1714 114.546L84.4057 114.658L87.9288 76.3231L86.6945 76.211Z" fill="#F5C371"/>
<path d="M99.1697 130.843L61.3848 137.434L61.5989 138.647L99.3838 132.057L99.1697 130.843Z" fill="#F5C371"/>
<path d="M103.76 89.9233L94.5308 126.781L95.7335 127.078L104.963 90.221L103.76 89.9233Z" fill="#F5C371"/>
<path d="M49.3985 77.9831C48.8884 74.2939 47.5054 64.5486 45.6992 53.8003L46.9235 53.5975C48.7334 64.3608 50.1202 74.1211 50.6303 77.8178L49.3985 77.9831Z" fill="#F5C371"/>
<path fill-rule="evenodd" clip-rule="evenodd" d="M307.147 293.597C292.101 290.614 281.109 297.899 277.141 307.926C274.024 315.804 282.39 334.509 289.286 338.739C309.966 351.43 363.123 355.611 373.813 345.479C372.929 330.827 330.982 298.319 307.147 293.597Z" fill="#FEDEA6"/>
<path d="M346.852 351.768C326.871 351.768 301.808 347.151 288.96 339.265C281.713 334.817 273.347 315.834 276.567 307.7C278.66 302.411 282.616 298.019 287.702 295.34C293.317 292.38 300.081 291.572 307.271 292.996C318.411 295.201 334.579 303.763 349.471 315.334C361.211 324.456 373.933 337.158 374.436 345.453L374.455 345.738L374.247 345.937C370.011 349.935 359.439 351.768 346.852 351.768ZM300.553 293.545C288.828 293.545 280.787 300.389 277.715 308.151C274.73 315.702 282.847 334.07 289.607 338.217C299.087 344.033 316.608 348.567 335.343 350.055C353.714 351.513 368.137 349.664 373.17 345.231C372.524 338.6 363.199 327.563 348.704 316.3C333.956 304.841 317.984 296.373 307.026 294.202C304.763 293.751 302.601 293.545 300.553 293.545Z" fill="#F5C371"/>
<path d="M277.547 307.237L277.096 308.384L373.766 345.947L374.217 344.799L277.547 307.237Z" fill="#F5C371"/>
<path d="M343.587 351.182C340.855 343.259 336.63 331.372 336.589 331.252L337.756 330.842C337.798 330.963 342.022 342.853 344.758 350.784L343.587 351.182Z" fill="#F5C371"/>
<path d="M332.512 328.834L331.316 329.158L337.255 350.856L338.451 350.533L332.512 328.834Z" fill="#F5C371"/>
<path d="M337.462 306.957L310.459 320.241L311.009 321.346L338.011 308.061L337.462 306.957Z" fill="#F5C371"/>
<path d="M294.712 314.189L293.496 314.428L299.273 343.545L300.489 343.307L294.712 314.189Z" fill="#F5C371"/>
<path d="M322.522 298.531L298.203 315.528L298.915 316.536L323.234 299.539L322.522 298.531Z" fill="#F5C371"/>
<path d="M347.135 335.463L346.852 334.265C349.697 333.596 357.216 331.86 365.578 330.151L365.828 331.357C357.485 333.063 349.976 334.798 347.135 335.463Z" fill="#F5C371"/>
<path fill-rule="evenodd" clip-rule="evenodd" d="M304.508 275.448C291.559 283.626 288.672 296.441 292.772 306.419C295.995 314.256 315.039 322.036 322.963 320.357C346.734 315.326 388.068 281.834 388.76 267.168C377.938 257.178 325.022 262.49 304.508 275.448Z" fill="#FEDEA6"/>
<path d="M320.449 321.206C311.251 321.206 295.211 313.974 292.2 306.652C290.038 301.389 289.846 295.498 291.659 290.066C293.662 284.07 297.989 278.836 304.178 274.929C313.764 268.873 331.403 263.956 350.209 262.092C365.036 260.623 383.06 261.067 389.185 266.717L389.397 266.912L389.381 267.198C388.671 282.199 347.167 315.864 323.094 320.958C322.3 321.127 321.412 321.206 320.449 321.206ZM364.409 262.577C360.082 262.577 355.351 262.821 350.33 263.317C331.705 265.162 314.274 270.012 304.843 275.97C291.727 284.254 289.619 297.117 293.348 306.186C296.436 313.696 315.068 321.398 322.837 319.752C333.73 317.445 349.551 308.688 364.129 296.896C378.424 285.332 387.568 274.088 388.127 267.427C384.439 264.271 375.843 262.577 364.409 262.577Z" fill="#F5C371"/>
<path d="M388.548 266.38L292.562 305.635L293.034 306.774L389.019 267.52L388.548 266.38Z" fill="#F5C371"/>
<path d="M370.871 292.049C363.389 288.199 352.076 282.507 351.963 282.447L352.522 281.346C352.635 281.402 363.952 287.098 371.438 290.952L370.871 292.049Z" fill="#F5C371"/>
<path d="M347.349 283.517L346.709 284.572L366.08 296.183L366.72 295.128L347.349 283.517Z" fill="#F5C371"/>
<path d="M335.687 264.261L325.393 292.411L326.558 292.832L336.852 264.682L335.687 264.261Z" fill="#F5C371"/>
<path d="M309.814 298.88L309.101 299.887L333.51 316.971L334.223 315.963L309.814 298.88Z" fill="#F5C371"/>
<path d="M319.045 268.48L313.27 297.47L314.485 297.71L320.261 268.719L319.045 268.48Z" fill="#F5C371"/>
<path d="M362.514 278.247L361.475 277.574C363.065 275.14 367.294 268.719 372.157 261.735L373.177 262.438C368.325 269.411 364.105 275.816 362.514 278.247Z" fill="#F5C371"/>
<mask id="mask0" mask-type="alpha" maskUnits="userSpaceOnUse" x="0" y="92" width="389" height="260">
<rect y="92" width="389" height="260" fill="#C4C4C4"/>
</mask>
<g mask="url(#mask0)">
<path fill-rule="evenodd" clip-rule="evenodd" d="M178.184 170.953C71.6316 132.476 18.2411 156.239 5.82618 234.475C-6.58869 312.711 68.2167 387.972 178.184 403.296C266.27 415.571 355.771 360.38 370.569 230.149C385.368 99.9189 284.736 209.43 178.184 170.953Z" fill="#F5C371"/>
</g>
<path d="M187.364 268.918C152.622 270.497 149.068 242.861 149.068 230.622C160.123 227.069 172.362 225.095 186.574 225.095C199.997 225.095 212.236 227.069 223.291 230.227C224.475 241.676 222.106 267.338 187.364 268.918Z" fill="#FFCBD3"/>
<path d="M149.069 230.227C149.069 242.466 152.622 270.102 187.364 268.523C222.107 266.943 224.081 241.281 223.291 229.832C303.04 253.52 322.78 351.036 322.78 351.036H61.4233C61.4233 351.036 72.4777 254.705 149.069 230.227Z" fill="#FF647C"/>
<path d="M259.612 68.3596C259.612 68.3596 284.879 94.4163 259.612 120.868C234.345 147.319 109.983 119.683 109.983 119.683C109.983 119.683 91.4272 83.3619 121.037 57.7C151.042 32.038 220.132 39.934 220.921 39.934C221.316 39.934 259.612 68.3596 259.612 68.3596Z" fill="#323C66"/>
<path d="M266.719 150.873C278.057 150.873 287.248 141.681 287.248 130.343C287.248 119.005 278.057 109.813 266.719 109.813C255.38 109.813 246.189 119.005 246.189 130.343C246.189 141.681 255.38 150.873 266.719 150.873Z" fill="#FBDDC3"/>
<path d="M114.326 150.873C125.665 150.873 134.856 141.681 134.856 130.343C134.856 119.005 125.665 109.813 114.326 109.813C102.988 109.813 93.7969 119.005 93.7969 130.343C93.7969 141.681 102.988 150.873 114.326 150.873Z" fill="#FBDDC3"/>
<path d="M261.191 110.998C261.981 122.052 261.191 125.211 260.007 136.265C257.638 157.979 247.373 176.535 227.634 187.194C207.894 197.459 181.442 201.407 160.518 192.721C144.331 186.01 131.697 174.166 125.381 158.374C118.274 140.213 117.879 116.92 119.064 97.1798C122.617 24.142 182.232 25.3264 182.232 25.3264C182.232 25.3264 261.586 18.6148 261.191 110.998Z" fill="#FBDDC3"/>
<path d="M209.077 214.041L211.446 243.256C211.446 243.256 210.262 257.863 186.574 260.627C162.886 263.39 160.122 238.518 160.122 238.518L164.07 187.589C178.283 207.329 197.233 212.461 209.077 214.041Z" fill="#FBDDC3"/>
<path d="M164.07 200.617L167.624 154.82L203.155 159.558L209.077 226.279C197.233 225.49 178.283 219.962 164.07 200.617Z" fill="#F6BB86"/>
<path d="M218.946 108.234C218.946 112.182 220.525 115.341 222.499 115.341C224.473 115.341 226.053 112.182 226.053 108.234C226.053 104.286 224.473 101.128 222.499 101.128C220.92 101.128 218.946 104.286 218.946 108.234Z" fill="#323C66"/>
<path d="M155.386 116.525C157.348 116.525 158.939 113.343 158.939 109.419C158.939 105.494 157.348 102.312 155.386 102.312C153.423 102.312 151.833 105.494 151.833 109.419C151.833 113.343 153.423 116.525 155.386 116.525Z" fill="#323C66"/>
<path d="M233.161 82.9671C236.319 88.0994 241.056 92.0474 246.978 93.2318C255.269 95.2058 265.929 95.2058 270.272 84.5463C277.773 65.5959 266.718 52.1727 266.718 52.1727C266.718 52.1727 291.591 31.6432 273.035 15.8512C254.48 -0.335587 242.241 18.6148 242.241 18.6148C242.241 18.6148 239.872 1.63841 222.896 0.0592124C205.525 -1.12519 199.603 15.8512 199.603 15.8512C199.603 15.8512 189.733 -0.730389 169.598 3.2176C149.463 7.1656 153.016 28.09 153.016 28.09C153.016 28.09 146.305 23.3524 135.645 25.7212C118.669 29.2744 110.378 48.6195 114.326 67.9647C116.695 80.5983 113.931 92.4422 111.562 99.1538C109.983 103.497 112.352 107.05 114.326 106.655C119.064 105.865 119.458 61.2531 136.829 62.4375C137.619 72.3075 141.962 88.0995 155.385 84.5463C158.543 83.7567 161.307 81.3879 163.281 79.0191C166.834 74.6763 168.413 69.5439 172.361 65.5959C174.73 62.8323 177.889 60.8583 181.047 59.2791C188.943 55.7259 197.629 56.1207 205.13 59.2791C218.948 64.4115 228.028 73.8867 233.161 82.9671Z" fill="#323C66"/>
<path d="M139.198 180.877C158.938 197.854 197.234 214.83 239.477 180.877C228.818 168.244 233.555 151.662 246.189 133.107C214.605 122.842 166.439 122.842 134.855 133.107C148.279 150.478 153.016 167.059 139.198 180.877Z" fill="#FF647C"/>
<path d="M138.804 134.686C128.539 128.369 121.038 119.683 115.905 110.998L138.804 134.686Z" fill="#EB7B55"/>
<path d="M240.663 136.265C249.743 129.948 256.06 121.263 261.587 110.998L240.663 136.265Z" fill="#EB7B55"/>
<path d="M208.684 97.1799C209.474 94.8111 211.053 93.2319 213.027 91.6527C215.001 90.0735 217.37 89.2839 219.738 88.8891C222.107 88.4943 224.871 89.2839 227.24 90.4683C228.424 90.8631 229.214 92.0475 230.003 92.8371C230.793 93.6267 231.582 94.8111 231.977 95.6007C229.608 94.8111 227.634 94.4163 225.66 94.0215C223.686 93.6267 222.107 93.6267 220.133 93.6267C216.58 93.6267 213.027 95.2059 208.684 97.1799Z" fill="#323C66"/>
<path d="M168.415 95.2059C164.467 92.0475 160.519 90.8631 156.571 91.2579C154.597 91.2579 152.623 91.6527 150.254 92.0475C149.07 92.4423 147.886 92.4423 146.701 92.8371C145.517 93.2319 144.332 93.2319 143.148 93.6267C143.938 92.4423 144.727 91.6527 145.517 90.8631C146.306 90.0735 147.491 89.2839 148.675 88.8891C151.044 87.7047 153.413 86.9151 156.176 86.9151C158.94 86.9151 161.704 87.7047 164.072 89.2839C166.441 90.4683 168.02 92.8371 168.415 95.2059Z" fill="#323C66"/>
</svg>
